<?xml version="1.0" encoding="iso-8859-1"?>
<!-- Uploaded to: SVG Repo, www.svgrepo.com, Generator: SVG Repo Mixer Tools -->
<svg height="800px" width="800px" version="1.1" id="Layer_1" xmlns="http://www.w3.org/2000/svg" xmlns:xlink="http://www.w3.org/1999/xlink" 
	 viewBox="0 0 512 512" xml:space="preserve">
<path style="fill:#F4E7BB;" d="M439.242,482.358H72.758c-23.812,0-43.116-19.304-43.116-43.116V72.758
	c0-23.812,19.304-43.116,43.116-43.116h366.484c23.812,0,43.116,19.304,43.116,43.116v366.484
	C482.358,463.054,463.054,482.358,439.242,482.358z"/>
<path style="fill:#91C1A4;" d="M374.568,364.328v21.019v59.284c0,32.742-26.542,59.284-59.284,59.284H67.368
	c-32.742,0-59.284-26.542-59.284-59.284l0,0c0-32.742,26.542-59.284,59.284-59.284h-2.695v-21.019H374.568z"/>
<path style="fill:#FFFF81;" d="M191.326,99.705c0,50.601-41.02,91.621-91.621,91.621S8.084,150.306,8.084,99.705
	S49.105,8.084,99.705,8.084S191.326,49.105,191.326,99.705z"/>
<path style="fill:#FFF145;" d="M148.211,99.705c0,26.789-21.716,48.505-48.505,48.505S51.2,126.494,51.2,99.705
	S72.916,51.2,99.705,51.2S148.211,72.916,148.211,99.705z"/>
<path style="fill:#BCAE8A;" d="M493.137,385.347H61.979l187.697-302.4c3.932-6.336,10.86-10.189,18.317-10.189h19.132
	c7.457,0,14.384,3.853,18.317,10.189L493.137,385.347z"/>
<path style="fill:#F2F2E7;" d="M267.993,72.758h19.132c7.457,0,14.384,3.853,18.317,10.189l20.083,32.358
	c-1.562,0.36-3.181,0.568-4.851,0.568h-43.116c0,11.906-9.651,21.558-21.558,21.558h-40.142l33.818-54.484
	C253.608,76.611,260.536,72.758,267.993,72.758z"/>
<path style="fill:#998C6E;" d="M374.568,385.347H18.863l149.952-237.855c3.948-6.263,10.833-10.061,18.237-10.061h19.329
	c7.403,0,14.289,3.798,18.237,10.061L374.568,385.347z"/>
<path style="fill:#D3D5BB;" d="M154.772,169.768l14.044-22.276c3.948-6.263,10.833-10.061,18.237-10.061h19.329
	c7.403,0,14.289,3.798,18.237,10.061l27.634,43.834h-39.368c-11.906,0-21.558-9.651-21.558-21.558H154.772z"/>
<path style="fill:#898424;" d="M503.916,374.568V460.8c0,23.812-19.304,43.116-43.116,43.116H326.063
	c-20.836,0-37.726-16.891-37.726-37.726l0,0c0-20.836,16.891-37.726,37.726-37.726h16.168c0-29.765,24.13-53.895,53.895-53.895l0,0
	l0,0c0-29.765,24.13-53.895,53.895-53.895l0,0C479.786,320.674,503.916,344.803,503.916,374.568z"/>
<path style="fill:#A9A632;" d="M396.126,503.916h-70.063c-20.836,0-37.726-16.891-37.726-37.726l0,0
	c0-20.836,16.891-37.726,37.726-37.726h16.168c0-29.765,24.13-53.895,53.895-53.895l0,0l0,0c23.812,0,43.116,19.304,43.116,43.116
	V460.8C439.242,484.612,419.938,503.916,396.126,503.916z"/>
<path style="fill:#A9D5BB;" d="M503.916,223.663L503.916,223.663c0,11.906-9.651,21.558-21.558,21.558h-75.453
	c-11.906,0-21.558-9.651-21.558-21.558h-43.116c-11.906,0-21.558-9.651-21.558-21.558l0,0c0-11.906,9.651-21.558,21.558-21.558
	h75.453c11.906,0,21.558,9.651,21.558,21.558l0,0h43.116C494.264,202.105,503.916,211.757,503.916,223.663z"/>
<path style="fill:#C5EAD4;" d="M245.221,363.789L245.221,363.789c0,11.906-9.651,21.558-21.558,21.558H177.64
	c1.838,3.173,2.907,6.848,2.907,10.779l0,0c0,11.906-9.651,21.558-21.558,21.558H29.642c-11.906,0-21.558-9.651-21.558-21.558l0,0
	c0-11.906,9.651-21.558,21.558-21.558h46.023c-1.838-3.173-2.907-6.848-2.907-10.779l0,0c0-11.906,9.651-21.558,21.558-21.558
	h129.347C235.57,342.232,245.221,351.883,245.221,363.789z"/>
<path d="M43.116,99.705c0,31.204,25.387,56.589,56.589,56.589s56.589-25.385,56.589-56.589s-25.387-56.589-56.589-56.589
	S43.116,68.501,43.116,99.705z M140.126,99.705c0,22.289-18.132,40.421-40.421,40.421s-40.421-18.132-40.421-40.421
	s18.132-40.421,40.421-40.421S140.126,77.417,140.126,99.705z M0,99.705C0,44.727,44.727,0,99.705,0s99.705,44.727,99.705,99.705
	c0,4.465-3.618,8.084-8.084,8.084s-8.084-3.62-8.084-8.084c0-46.062-37.475-83.537-83.537-83.537S16.168,53.644,16.168,99.705
	s37.475,83.537,83.537,83.537c4.466,0,8.084,3.62,8.084,8.084c0,4.465-3.618,8.084-8.084,8.084C44.727,199.411,0,154.683,0,99.705z
	 M344.926,8.084c0-4.465,3.618-8.084,8.084-8.084c10.823,0,20.517,4.935,26.947,12.671C386.389,4.935,396.082,0,406.905,0
	c4.466,0,8.084,3.62,8.084,8.084s-3.618,8.084-8.084,8.084c-10.401,0-18.863,8.463-18.863,18.863c0,4.465-3.618,8.084-8.084,8.084
	s-8.084-3.62-8.084-8.084c0-10.401-8.463-18.863-18.863-18.863C348.545,16.168,344.926,12.549,344.926,8.084z M441.937,83.537
	c0-4.465,3.618-8.084,8.084-8.084c10.823,0,20.517,4.935,26.947,12.671c6.431-7.736,16.124-12.671,26.947-12.671
	c4.466,0,8.084,3.62,8.084,8.084s-3.618,8.084-8.084,8.084c-10.401,0-18.863,8.463-18.863,18.863c0,4.465-3.618,8.084-8.084,8.084
	c-4.466,0-8.084-3.62-8.084-8.084c0-10.401-8.463-18.863-18.863-18.863C445.555,91.621,441.937,88.001,441.937,83.537z
	 M245.221,452.716c4.466,0,8.084,3.62,8.084,8.084c0,4.465-3.618,8.084-8.084,8.084H126.653c-4.466,0-8.084-3.62-8.084-8.084
	c0-4.465,3.618-8.084,8.084-8.084H245.221z M450.021,312.589c-31.596,0-57.747,23.764-61.513,54.36
	c-27.943,3.44-50.189,25.549-53.834,53.429h-8.61c-25.26,0-45.811,20.55-45.811,45.811S300.803,512,326.063,512h53.895
	c0.822,0,1.665-0.027,2.618-0.084c1.012,0.057,1.905,0.084,2.771,0.084H460.8c28.231,0,51.2-22.969,51.2-51.2v-86.232
	C512,340.393,484.197,312.589,450.021,312.589z M495.832,460.8c0,19.316-15.715,35.032-35.032,35.032h-75.453
	c-0.664,0-1.385-0.026-2.271-0.083c-0.171-0.011-0.344-0.016-0.516-0.016c-0.184,0-0.369,0.006-0.553,0.019
	c-0.803,0.055-1.454,0.081-2.049,0.081h-53.895c-16.344,0-29.642-13.297-29.642-29.642c0-16.345,13.298-29.642,29.642-29.642H358.4
	c16.344,0,29.642,13.297,29.642,29.642c0,4.465,3.618,8.084,8.084,8.084c4.466,0,8.084-3.62,8.084-8.084
	c0-25.26-20.55-45.811-45.811-45.811h-7.37c3.83-21.418,22.594-37.726,45.096-37.726h5.389c16.344,0,29.642,13.297,29.642,29.642
	c0,4.465,3.618,8.084,8.084,8.084c4.466,0,8.084-3.62,8.084-8.084c0-16.345,13.298-29.642,29.642-29.642
	c4.466,0,8.084-3.62,8.084-8.084s-3.618-8.084-8.084-8.084c-15.628,0-29.455,7.868-37.726,19.849
	c-7.668-11.109-20.112-18.681-34.339-19.725c3.778-21.479,22.572-37.851,45.117-37.851c25.26,0,45.811,20.55,45.811,45.811V460.8z
	 M273.246,495.832H67.368c-28.231,0-51.2-22.969-51.2-51.2c0-7.046,1.439-13.963,4.203-20.347c2.918,0.964,6.035,1.484,9.271,1.484
	h129.347c16.344,0,29.642-13.297,29.642-29.642c0-0.901-0.042-1.8-0.124-2.695h132.166c4.466,0,8.084-3.62,8.084-8.084
	s-3.618-8.084-8.084-8.084h-70.612c2.073-4.044,3.243-8.625,3.243-13.474c0-16.345-13.298-29.642-29.642-29.642H94.316
	c-16.344,0-29.642,13.297-29.642,29.642c0,0.901,0.042,1.8,0.124,2.695H40.312l118.919-188.632h25.13
	c3.527,12.428,14.978,21.558,28.522,21.558h34.907l103.142,163.605c2.382,3.776,7.374,4.909,11.151,2.527
	c3.777-2.381,4.909-7.373,2.528-11.15L259.145,187.105c-0.034-0.057-0.069-0.113-0.107-0.169l-27.584-43.756
	c-5.461-8.661-14.834-13.833-25.074-13.833h-19.329c-10.24,0-19.613,5.172-25.076,13.834l-13.985,22.183
	c-0.043,0.066-0.084,0.132-0.125,0.198L20.234,368.014C8.487,371.956,0,383.069,0,396.126c0,7.183,2.569,13.777,6.834,18.913
	C2.348,424.21,0,434.319,0,444.632C0,481.778,30.221,512,67.368,512h205.878c4.466,0,8.084-3.62,8.084-8.084
	S277.712,495.832,273.246,495.832z M175.654,151.804c2.482-3.938,6.743-6.288,11.398-6.288h19.329c4.654,0,8.915,2.351,11.398,6.288
	l19.82,31.438h-24.714c-7.43,0-13.474-6.044-13.474-13.474c0-4.465-3.618-8.084-8.084-8.084h-21.902L175.654,151.804z
	 M29.642,382.653h46.023c2.891,0,5.561-1.544,7.004-4.046c1.443-2.504,1.44-5.589-0.009-8.089c-1.207-2.085-1.818-4.348-1.818-6.728
	c0-7.43,6.044-13.474,13.474-13.474h129.347c7.43,0,13.474,6.044,13.474,13.474s-6.044,13.474-13.474,13.474H177.64
	c-2.891,0-5.56,1.542-7.004,4.046c-1.443,2.504-1.44,5.588,0.009,8.089c1.207,2.085,1.819,4.348,1.819,6.728
	c0,7.43-6.044,13.474-13.474,13.474H29.643c-7.43,0-13.474-6.044-13.474-13.474C16.17,388.696,22.212,382.653,29.642,382.653z
	 M482.358,194.021h-36.152c-3.527-12.428-14.978-21.558-28.522-21.558h-47.169l-38.031-61.275c-0.059-0.099-0.12-0.197-0.182-0.293
	l-19.994-32.212c-5.444-8.772-14.86-14.009-25.185-14.009h-19.13c-10.325,0-19.74,5.237-25.185,14.01l-20.085,32.359
	c-2.355,3.793-1.189,8.777,2.605,11.131c3.792,2.354,8.776,1.189,11.131-2.605l20.085-32.358c2.476-3.988,6.755-6.368,11.448-6.368
	h19.13c4.693,0,8.972,2.38,11.448,6.368l12.773,20.578h-33.787c-4.466,0-8.084,3.62-8.084,8.084c0,7.43-6.044,13.474-13.474,13.474
	c-4.466,0-8.084,3.62-8.084,8.084c0,4.465,3.618,8.084,8.084,8.084c13.543,0,24.994-9.13,28.522-21.558h36.152
	c0.233,0,0.467-0.003,0.701-0.009l30.112,48.514h-9.255c-16.344,0-29.642,13.297-29.642,29.642s13.298,29.642,29.642,29.642h36.152
	c3.032,10.684,11.919,18.929,22.957,21.034l29.21,47.06c1.531,2.466,4.173,3.822,6.876,3.822c1.456,0,2.929-0.392,4.256-1.217
	c3.794-2.354,4.96-7.338,2.605-11.131l-23.592-38.01h61.663c16.344,0,29.642-13.297,29.642-29.642S498.702,194.021,482.358,194.021z
	 M482.358,237.137h-75.453c-7.43,0-13.474-6.044-13.474-13.474c0-4.465-3.618-8.084-8.084-8.084h-43.116
	c-7.43,0-13.474-6.044-13.474-13.474s6.044-13.474,13.474-13.474h23.662c0.088,0.001,0.177,0.001,0.265,0h51.526
	c7.43,0,13.474,6.044,13.474,13.474c0,4.465,3.618,8.084,8.084,8.084h43.116c7.43,0,13.474,6.044,13.474,13.474
	S489.788,237.137,482.358,237.137z M266.779,436.547h-53.895c-4.466,0-8.084-3.62-8.084-8.084s3.618-8.084,8.084-8.084h53.895
	c4.466,0,8.084,3.62,8.084,8.084S271.245,436.547,266.779,436.547z M94.316,452.716c4.466,0,8.084,3.62,8.084,8.084
	c0,4.465-3.618,8.084-8.084,8.084H72.758c-4.466,0-8.084-3.62-8.084-8.084c0-4.465,3.618-8.084,8.084-8.084H94.316z"/>
</svg>